                        This is from the rebroadcast on PBS for anyone who has missed this the first time around.  

                                       								

												

       I assume that this will not be exactly the same as the BBC broadcast as almost all 

PBS versions  of all BBC shows are edited. Most BBC dramas are appx. 57 min. long.         

                                                                                         

If you want the BBC version then do not download this, but search here or try Google.		

												

												

											

Enjoy and please share.										

												

												

											

TTLTTLTTLTTLTTLTTLTTLTTLTTLTTLTTLTTLTTLTTLTTLTTLTTLTTL						

												

												

												

Upstairs_Downstairs_S02_E01_A_Faraway_Place_(Masterpiece_Classic)_720p.HDTV.x264_TTL.mkv
Format                           : Matroska
File size                        : 1.12 GiB
Duration                         : 51mn 23s
Overall bit rate                 : 3 117 Kbps
Writing application              : HandBrake 0.9.5
Writing library                  : libmkv 0.6.4.1

Video
ID                               : 1
Format                           : AVC
Format/Info                      : Advanced Video Codec
Format profile                   : High@L3.1
Format settings, CABAC           : Yes
Format settings, ReFrames        : 4 frames
Format settings, GOP             : M=1, N=16
Muxing mode                      : Container profile=Unknown@3.1
Codec ID                         : V_MPEG4/ISO/AVC
Duration                         : 51mn 23s
Bit rate                         : 2 887 Kbps
Width                            : 1 280 pixels
Height                           : 720 pixels
Display aspect ratio             : 16:9
Frame rate mode                  : Variable
Frame rate                       : 29.970 fps
Color space                      : YUV
Chroma subsampling               : 4:2:0
Bit depth                        : 8 bits
Scan type                        : Progressive
Bits/(Pixel*Frame)               : 0.105
Stream size                      : 1.02 GiB (91%)
Writing library                  : x264 core 112

Audio                            : English
ID                               : 2
Format                           : AC-3
Format/Info                      : Audio Coding 3
Mode extension                   : CM (complete main)
Codec ID                         : A_AC3
Duration                         : 51mn 23s
Bit rate mode                    : Constant
Bit rate                         : 224 Kbps
Channel(s)                       : 2 channels
Channel positions                : Front: L R
Sampling rate                    : 48.0 KHz
Stream size                      : 82.4 MiB (7%)                                                      